<?xml version="1.0" encoding="utf-8"?>
<!-- Generator: Adobe Illustrator 24.3.0, SVG Export Plug-In . SVG Version: 6.00 Build 0)  -->
<svg version="1.1" id="Layer_1" xmlns="http://www.w3.org/2000/svg" xmlns:xlink="http://www.w3.org/1999/xlink" x="0px" y="0px"
	 viewBox="0 0 264 280" style="enable-background:new 0 0 264 280;" xml:space="preserve">
<style type="text/css">
	.st0{fill-rule:evenodd;clip-rule:evenodd;fill:#E6E6E6;}
	.st1{fill-rule:evenodd;clip-rule:evenodd;fill:#2C3E50;}
	.st2{fill-rule:evenodd;clip-rule:evenodd;fill:#D0C6AC;}
	.st3{fill-rule:evenodd;clip-rule:evenodd;fill:#6D4D37;}
	.st4{fill-rule:evenodd;clip-rule:evenodd;fill:#4F3728;}
	.st5{fill-rule:evenodd;clip-rule:evenodd;fill:#E0A217;}
	.st6{fill-rule:evenodd;clip-rule:evenodd;fill-opacity:0.7;}
	.st7{fill-rule:evenodd;clip-rule:evenodd;fill-opacity:0.16;}
	.st8{fill-rule:evenodd;clip-rule:evenodd;fill-opacity:0.6;}
</style>
<desc>Created with getavataaars.com</desc>
<circle class="st0" cx="132" cy="160" r="120"/>
<rect class="st1" width="264" height="280"/>
<path class="st2" d="M156,180.6V199h4l0,0c39.8,0,72,32.2,72,72v9H32v-9c0-39.8,32.2-72,72-72l0,0h4v-18.4
	c-17.2-8.2-29.6-24.9-31.7-44.7C70.5,135.1,66,130.1,66,124v-14c0-5.9,4.3-10.9,10-11.8V92l0,0c0-30.9,25.1-56,56-56l0,0l0,0
	c30.9,0,56,25.1,56,56v6.2c5.7,1,10,5.9,10,11.8v14c0,6.1-4.5,11.1-10.3,11.9C185.6,155.7,173.2,172.4,156,180.6z"/>
<path class="st3" d="M188,98.2V88.1l-3.5,1.6c0,0-0.3,43.3-5.2,50.3s-17.2,5.7-20.2,4.6c-3-1.1-15-3.4-27.1-2.6
	c-12.1-0.7-24.1,1.5-27.1,2.6S89.5,147,84.7,140s-5.2-62.6-5.2-62.6L76,81.7v16.5c0,0-1.7,34.8,1.7,46.8c3.4,12.1,16.1,40.9,54.2,41
	l0,0c0,0,0,0,0.1,0s0,0,0.1,0l0,0c38-0.1,52.8-33,53.7-40.5C190.5,131.1,188,98.2,188,98.2z"/>
<path class="st4" d="M105.6,45.2c0,0-16.6,22.1-20,27c-3.4,4.8-9.9,26.6-9.9,26.6s-3.7-31.3,10.1-44S105.6,45.2,105.6,45.2z"/>
<path class="st4" d="M121.5,23.5c75.5,0,74.3,69.9,74.3,69.9s-32.4-8.5-50.6-26s-26.4-8.2-39.2-8.2S60,23.5,121.5,23.5z"/>
<path class="st5" d="M166,199.3c37,3,66,34,66,71.8v8.9H32v-8.9c0-38.1,29.6-69.3,67-71.9c0,0.4,0,0.7,0,1.1
	c0,11.9,15,21.5,33.5,21.5s33.5-9.6,33.5-21.5C166,200,166,199.6,166,199.3z"/>
<path class="st6" d="M113.1,149.1c1.1,9.5,9.1,16.9,18.9,16.9s17.9-7.4,18.9-17c0.1-0.8-0.8-2-1.8-2c-14.9,0-26.3,0-34,0
	C114,147,113,148.2,113.1,149.1z"/>
<path id="Nose" class="st7" d="M120,130c0,4.4,5.4,8,12,8l0,0c6.6,0,12-3.6,12-8"/>
<path id="Squint" class="st8" d="M92.2,112.4c1.8-3.8,6-6.4,10.8-6.4s9,2.6,10.8,6.4c0.6,1.1-0.2,2-1,1.4c-2.5-2.1-5.9-3.4-9.8-3.4
	c-3.7,0-7.1,1.2-9.6,3.2C92.5,114.3,91.6,113.6,92.2,112.4z"/>
<path class="st8" d="M150.2,112.4c1.8-3.8,6-6.4,10.8-6.4s9,2.6,10.8,6.4c0.6,1.1-0.2,2-1,1.4c-2.5-2.1-5.9-3.4-9.8-3.4
	c-3.7,0-7.1,1.2-9.6,3.2C150.5,114.3,149.6,113.6,150.2,112.4z"/>
<path id="Eyebrow" class="st8" d="M102.5,88.1c-5.8,0.3-15.2,4.5-15,10.3c0,0.2,0.3,0.3,0.4,0.1c2.8-3,22.3-5.9,29.2-4.4
	c0.6,0.1,1.1-0.5,0.7-0.9C114.5,89.5,107.7,87.9,102.5,88.1"/>
<path class="st8" d="M162.5,88.1c5.8,0.3,15.2,4.5,15,10.3c0,0.2-0.3,0.3-0.4,0.1c-2.8-3-22.3-5.9-29.2-4.4
	c-0.6,0.1-1.1-0.5-0.7-0.9C150.5,89.5,157.3,87.9,162.5,88.1"/>
<path class="st3" d="M121.5,22c75.5,0,74.3,71.4,74.3,71.4s-32.4-15-50.6-32.5s-26.4-3.2-39.2-3.2S60,22,121.5,22z"/>
<path class="st3" d="M96.5,42.6"/>
<path class="st3" d="M75.8,98.7c0,0-6.6-54.9,8.1-57.9s21.7,4.4,21.7,4.4S73.7,73.7,75.8,98.7z"/>
</svg>
